<svg width="128" height="128" viewBox="0 0 128 128" fill="none" xmlns="http://www.w3.org/2000/svg">
<rect width="128" height="128" fill="white"/>
<path d="M38.9527 34.7381H49.3515L70.4594 91H59.6726L55.2493 78.506H32.4341L28.0883 91H18L38.9527 34.7381ZM35.3054 70.2801H52.3004L43.7641 46.1457L35.3054 70.2801ZM77.2029 72.7634C77.8238 80.5236 83.2559 84.3262 88.5329 84.3262C93.3443 84.3262 97.1468 82.3861 98.7765 78.506H107.856C105.916 85.1798 99.7077 92.0088 88.9209 92.0088C75.4957 92.0088 67.813 81.7653 67.813 69.8145C67.813 57.2428 76.4269 48.3185 88.3001 48.3185C101.105 48.3185 109.098 58.7173 108.322 72.7634H77.2029ZM77.2029 66.0119H98.9317C98.6989 59.4933 93.7323 55.5356 88.3001 55.5356C83.9544 55.5356 77.979 58.0965 77.2029 66.0119Z" fill="black"/>
<path d="M69.75 42.35V34.25H106.65V42.35H69.75Z" fill="black"/>
</svg>
